<svg width="48" height="48" viewBox="0 0 48 48" fill="none" xmlns="http://www.w3.org/2000/svg">
<path fill-rule="evenodd" clip-rule="evenodd" d="M43 37H5C2.791 37 1 35.209 1 33V7C1 4.791 2.791 3 5 3H43C45.209 3 47 4.791 47 7V33C47 35.209 45.209 37 43 37ZM45 7C45 5.896 44.104 5 43 5H5C3.896 5 3 5.896 3 7V33C3 34.104 3.896 35 5 35H43C44.104 35 45 34.104 45 33V7ZM41.334 30.715L35 24.381L31.381 28L34.715 31.334C35.096 31.715 35.096 32.333 34.715 32.715C34.333 33.096 33.715 33.096 33.334 32.715L19 18.381L6.666 30.715C6.285 31.096 5.667 31.096 5.285 30.715C4.904 30.333 4.904 29.715 5.285 29.334L18.19 16.429C18.222 16.381 18.243 16.328 18.285 16.285C18.482 16.088 18.742 15.998 19 16.004C19.258 15.998 19.518 16.088 19.715 16.285C19.757 16.328 19.777 16.381 19.81 16.429L30 26.619L34.19 22.429C34.223 22.382 34.243 22.328 34.285 22.285C34.482 22.089 34.742 21.998 35 22.004C35.258 21.998 35.518 22.089 35.715 22.285C35.757 22.328 35.777 22.382 35.81 22.429L42.715 29.334C43.096 29.715 43.096 30.333 42.715 30.715C42.333 31.096 41.715 31.096 41.334 30.715ZM29 15C26.791 15 25 13.209 25 11C25 8.791 26.791 7 29 7C31.209 7 33 8.791 33 11C33 13.209 31.209 15 29 15ZM29 9C27.896 9 27 9.896 27 11C27 12.104 27.896 13 29 13C30.104 13 31 12.104 31 11C31 9.896 30.104 9 29 9Z" fill="black"/>
</svg>
